<mxfile host="Electron" modified="2024-07-18T18:41:09.331Z" agent="Mozilla/5.0 (Windows NT 10.0; Win64; x64) AppleWebKit/537.36 (KHTML, like Gecko) draw.io/24.6.4 Chrome/124.0.6367.207 Electron/30.0.6 Safari/537.36" etag="Y1TPHjwa8kUslNiy56Ac" version="24.6.4" type="device">
  <diagram name="Page-1" id="T5yoxnP15J2Te44gVEhW">
    <mxGraphModel dx="744" dy="433" grid="1" gridSize="10" guides="1" tooltips="1" connect="1" arrows="1" fold="1" page="1" pageScale="1" pageWidth="850" pageHeight="1100" math="0" shadow="0">
      <root>
        <mxCell id="0" />
        <mxCell id="1" parent="0" />
        <mxCell id="VZWkwXiBIHjrUDiES3mE-5" style="edgeStyle=orthogonalEdgeStyle;rounded=0;orthogonalLoop=1;jettySize=auto;html=1;exitX=0.25;exitY=1;exitDx=0;exitDy=0;entryX=0.5;entryY=0;entryDx=0;entryDy=0;" edge="1" parent="1" source="VZWkwXiBIHjrUDiES3mE-1" target="VZWkwXiBIHjrUDiES3mE-3">
          <mxGeometry relative="1" as="geometry">
            <Array as="points">
              <mxPoint x="360" y="410" />
              <mxPoint x="330" y="410" />
            </Array>
          </mxGeometry>
        </mxCell>
        <mxCell id="VZWkwXiBIHjrUDiES3mE-6" value="dependency" style="edgeLabel;html=1;align=center;verticalAlign=middle;resizable=0;points=[];" vertex="1" connectable="0" parent="VZWkwXiBIHjrUDiES3mE-5">
          <mxGeometry x="-0.1129" y="-1" relative="1" as="geometry">
            <mxPoint x="-21" y="11" as="offset" />
          </mxGeometry>
        </mxCell>
        <mxCell id="VZWkwXiBIHjrUDiES3mE-7" style="edgeStyle=orthogonalEdgeStyle;rounded=0;orthogonalLoop=1;jettySize=auto;html=1;exitX=0.75;exitY=1;exitDx=0;exitDy=0;entryX=0.5;entryY=0;entryDx=0;entryDy=0;" edge="1" parent="1" source="VZWkwXiBIHjrUDiES3mE-1" target="VZWkwXiBIHjrUDiES3mE-4">
          <mxGeometry relative="1" as="geometry">
            <mxPoint x="400" y="390" as="sourcePoint" />
            <mxPoint x="430" y="460" as="targetPoint" />
            <Array as="points">
              <mxPoint x="400" y="410" />
              <mxPoint x="430" y="410" />
            </Array>
          </mxGeometry>
        </mxCell>
        <mxCell id="VZWkwXiBIHjrUDiES3mE-8" value="dependency" style="edgeLabel;html=1;align=center;verticalAlign=middle;resizable=0;points=[];" vertex="1" connectable="0" parent="VZWkwXiBIHjrUDiES3mE-7">
          <mxGeometry x="-0.1953" relative="1" as="geometry">
            <mxPoint x="20" y="10" as="offset" />
          </mxGeometry>
        </mxCell>
        <mxCell id="VZWkwXiBIHjrUDiES3mE-1" value="web" style="rounded=1;whiteSpace=wrap;html=1;" vertex="1" parent="1">
          <mxGeometry x="340" y="340" width="80" height="40" as="geometry" />
        </mxCell>
        <mxCell id="VZWkwXiBIHjrUDiES3mE-11" style="edgeStyle=orthogonalEdgeStyle;rounded=0;orthogonalLoop=1;jettySize=auto;html=1;exitX=0;exitY=0.5;exitDx=0;exitDy=0;entryX=1;entryY=0.5;entryDx=0;entryDy=0;" edge="1" parent="1" source="VZWkwXiBIHjrUDiES3mE-2" target="VZWkwXiBIHjrUDiES3mE-1">
          <mxGeometry relative="1" as="geometry" />
        </mxCell>
        <mxCell id="VZWkwXiBIHjrUDiES3mE-12" value="requests" style="edgeLabel;html=1;align=center;verticalAlign=middle;resizable=0;points=[];" vertex="1" connectable="0" parent="VZWkwXiBIHjrUDiES3mE-11">
          <mxGeometry x="-0.0818" relative="1" as="geometry">
            <mxPoint as="offset" />
          </mxGeometry>
        </mxCell>
        <mxCell id="VZWkwXiBIHjrUDiES3mE-2" value="process" style="rounded=1;whiteSpace=wrap;html=1;" vertex="1" parent="1">
          <mxGeometry x="510" y="340" width="80" height="40" as="geometry" />
        </mxCell>
        <mxCell id="VZWkwXiBIHjrUDiES3mE-3" value="pannellum" style="rounded=1;whiteSpace=wrap;html=1;" vertex="1" parent="1">
          <mxGeometry x="290" y="450" width="80" height="40" as="geometry" />
        </mxCell>
        <mxCell id="VZWkwXiBIHjrUDiES3mE-9" style="edgeStyle=orthogonalEdgeStyle;rounded=0;orthogonalLoop=1;jettySize=auto;html=1;exitX=0.5;exitY=1;exitDx=0;exitDy=0;entryX=0.5;entryY=1;entryDx=0;entryDy=0;" edge="1" parent="1" source="VZWkwXiBIHjrUDiES3mE-4" target="VZWkwXiBIHjrUDiES3mE-3">
          <mxGeometry relative="1" as="geometry" />
        </mxCell>
        <mxCell id="VZWkwXiBIHjrUDiES3mE-10" value="dependency" style="edgeLabel;html=1;align=center;verticalAlign=middle;resizable=0;points=[];" vertex="1" connectable="0" parent="VZWkwXiBIHjrUDiES3mE-9">
          <mxGeometry x="0.0664" y="1" relative="1" as="geometry">
            <mxPoint as="offset" />
          </mxGeometry>
        </mxCell>
        <mxCell id="VZWkwXiBIHjrUDiES3mE-4" value="trailviewer" style="rounded=1;whiteSpace=wrap;html=1;" vertex="1" parent="1">
          <mxGeometry x="390" y="450" width="80" height="40" as="geometry" />
        </mxCell>
        <mxCell id="VZWkwXiBIHjrUDiES3mE-14" style="edgeStyle=orthogonalEdgeStyle;rounded=0;orthogonalLoop=1;jettySize=auto;html=1;exitX=0.5;exitY=1;exitDx=0;exitDy=0;entryX=0.5;entryY=0;entryDx=0;entryDy=0;startArrow=classic;startFill=1;" edge="1" parent="1" source="VZWkwXiBIHjrUDiES3mE-13" target="VZWkwXiBIHjrUDiES3mE-1">
          <mxGeometry relative="1" as="geometry" />
        </mxCell>
        <mxCell id="VZWkwXiBIHjrUDiES3mE-13" value="database" style="rounded=1;whiteSpace=wrap;html=1;" vertex="1" parent="1">
          <mxGeometry x="340" y="250" width="80" height="40" as="geometry" />
        </mxCell>
      </root>
    </mxGraphModel>
  </diagram>
</mxfile>
